<?xml version="1.0" encoding="UTF-8"?>
<!DOCTYPE svg PUBLIC "-//W3C//DTD SVG 1.1//EN" "http://www.w3.org/Graphics/SVG/1.1/DTD/svg11.dtd">
<svg version="1.1" xmlns="http://www.w3.org/2000/svg" xmlns:xlink="http://www.w3.org/1999/xlink" x="0" y="0" width="867" height="1760" viewBox="0, 0, 867, 1760">
  <g id="Black" display="none">
    <g id="Phone">
      <g id="Body">
        <path d="M8.5,221.078 C13.194,221.078 17,224.883 17,229.577 C17,229.577 17,283.57 17,283.57 C17,288.263 13.194,292.069 8.5,292.069 C3.806,292.069 -0,288.263 -0,283.57 C-0,283.57 -0,229.577 -0,229.577 C-0,224.883 3.806,221.078 8.5,221.078 z" fill="#2A2A2A" id="Rounded_Rectangle_2"/>
        <path d="M8.5,374.057 C13.194,374.057 17,377.862 17,382.556 C17,382.556 17,494.54 17,494.54 C17,499.234 13.194,503.039 8.5,503.039 C3.806,503.039 -0,499.234 -0,494.54 C-0,494.54 -0,382.556 -0,382.556 C-0,377.862 3.806,374.057 8.5,374.057 z" fill="#2A2A2A" id="Rounded_Rectangle_2_copy"/>
        <path d="M8.5,533.035 C13.194,533.035 17,536.84 17,541.534 C17,541.534 17,653.519 17,653.519 C17,658.212 13.194,662.017 8.5,662.017 C3.806,662.017 -0,658.212 -0,653.519 C-0,653.519 -0,541.534 -0,541.534 C-0,536.84 3.806,533.035 8.5,533.035 z" fill="#2A2A2A" id="Rounded_Rectangle_2_copy_2"/>
        <path d="M859,495.04 L859,364.059 L862,364.059 L862,364.058 L862.002,364.059 L863,364.059 L863,364.159 C865.463,364.875 866.747,366.553 867,369.058 C867,369.058 867,490.041 867,490.041 C866.717,493.131 865.634,493.835 863,494.94 L863,495.04 L859,495.04 z" fill="#2A2A2A" id="Rectangle_1"/>
        <path d="M134.009,-0 L135.728,0.109 L737.656,0.109 L737.985,0.084 L744,0.109 L745,0.109 L745,0.164 C809.944,3.063 858.447,52.741 862,117.093 C862.024,123.212 862.178,121.11 862,123.415 L862,1634.013 C862.28,1638.872 862.191,1635.917 862,1642.882 C858.5,1705.49 805.867,1757.366 737,1759.865 C730.762,1759.922 732.998,1760.067 730.277,1759.865 L133.579,1759.865 C130.014,1760.101 132.537,1759.978 126,1759.865 C59.383,1756.866 13,1704.99 9,1642.882 C8.737,1635.483 8.684,1638.875 9,1632.705 L9,126.079 C8.716,121.102 8.802,124.096 9,117.093 C12.667,52.484 62.716,3.108 128,0.109 L134.009,-0 z" fill="#353535" id="Rectangle_1_copy_2"/>
        <path d="M21,129.091 C21,59.983 66.883,12.107 138,12.107 L140,12.158 L140,12.107 L732.992,12.107 L733,12.107 C805.617,12.107 850,59.983 850,129.091 L850,1629.384 C850,1693.992 797.617,1746.367 733,1746.367 L131,1746.367 L131,1746.206 C96.19,1744.498 62.443,1730.689 41.892,1701.525 C26.921,1680.28 21.513,1654.974 21,1629.384 L21,129.091 z" fill="#404040" id="Rectangle_1_copy_3"/>
        <path d="M728.138,16.106 C805.29,16.107 846.5,66.829 846,133.938 L845.999,133.965 L846,133.965 C846,133.965 846,1626.009 846,1626.009 L845.405,1626.009 C846.05,1631.853 845.81,1628.666 846,1635.578 C846,1689.885 793.231,1743.868 728.138,1743.868 L728.125,1743.867 L728.125,1743.868 C728.125,1743.868 135.812,1743.868 135.812,1743.868 L135.812,1743.699 C100.378,1742.773 64.953,1729.028 44.576,1698.7 C30.102,1677.159 25.456,1651.542 25,1626.036 L25,1626.009 L25,1626.009 L25,133.965 L25,133.965 L25,133.938 C25,64.33 68.22,16.107 142.861,16.107 L144.875,16.157 L144.875,16.107 C144.875,16.107 728.125,16.107 728.125,16.107 L728.125,16.107 L728.138,16.106 z" fill="#1B1C1E" id="Rectangle_1_copy_4"/>
        <path d="M850,151.088 C850,151.088 862,151.088 862,151.088 C862,151.088 862,167.086 862,167.086 C862,167.086 850,167.086 850,167.086 C850,167.086 850,151.088 850,151.088 z" fill="#1B1B1B" id="Line2" opacity="0.42"/>
        <path d="M9,151.088 C9,151.088 21,151.088 21,151.088 C21,151.088 21,167.086 21,167.086 C21,167.086 9,167.086 9,167.086 C9,167.086 9,151.088 9,151.088 z" fill="#1B1B1B" id="Line1" opacity="0.42"/>
        <path d="M850,1579.89 C850,1579.89 862,1579.89 862,1579.89 C862,1579.89 862,1595.888 862,1595.888 C862,1595.888 850,1595.888 850,1595.888 C850,1595.888 850,1579.89 850,1579.89 z" fill="#1B1B1B" id="Line4" opacity="0.42"/>
        <path d="M9,1579.89 C9,1579.89 21,1579.89 21,1579.89 C21,1579.89 21,1595.888 21,1595.888 C21,1595.888 9,1595.888 9,1595.888 C9,1595.888 9,1579.89 9,1579.89 z" fill="#1B1B1B" id="Line3" opacity="0.42"/>
      </g>
      <g id="Round">
        <path d="M435,1587.89 C469.794,1587.89 498,1616.092 498,1650.881 C498,1685.67 469.794,1713.872 435,1713.872 C400.206,1713.872 372,1685.67 372,1650.881 C372,1616.092 400.206,1587.89 435,1587.89 z" fill="#404040" id="Ellipse_2"/>
        <path d="M435,1595.888 C465.376,1595.888 490,1620.509 490,1650.881 C490,1681.252 465.376,1705.873 435,1705.873 C404.624,1705.873 380,1681.252 380,1650.881 C380,1620.509 404.624,1595.888 435,1595.888 z" fill="#141516" id="Ellipse_2_copy"/>
      </g>
      <g id="Speker">
        <g id="Rounded_Rectangle_1">
          <path d="M391,110.094 C391,110.094 507,110.094 507,110.094 C511.418,110.094 515,113.675 515,118.093 C515,122.51 511.418,126.092 507,126.092 C507,126.092 391,126.092 391,126.092 C386.582,126.092 383,122.51 383,118.093 C383,113.675 386.582,110.094 391,110.094 z" fill="#353535"/>
          <path d="M507,107.094 C513.075,107.094 518,112.018 518,118.093 C518,124.167 513.075,129.092 507,129.092 L391,129.092 C384.925,129.092 380,124.167 380,118.093 C380,112.018 384.925,107.094 391,107.094 L507,107.094 z M507,110.094 L391,110.094 C386.582,110.094 383,113.675 383,118.093 C383,122.51 386.582,126.092 391,126.091 L507,126.091 C511.418,126.092 515,122.51 515,118.093 C515,113.675 511.418,110.094 507,110.094 z" fill="#404040"/>
        </g>
      </g>
      <g id="cam">
        <path d="M325,100.095 C334.941,100.095 343,108.153 343,118.093 C343,128.032 334.941,136.09 325,136.09 C315.059,136.09 307,128.032 307,118.093 C307,108.153 315.059,100.095 325,100.095 z" fill="#353535" id="Ellipse_1"/>
        <path d="M325,107.094 C331.075,107.094 336,112.018 336,118.093 C336,124.167 331.075,129.091 325,129.091 C318.925,129.091 314,124.167 314,118.093 C314,112.018 318.925,107.094 325,107.094 z" fill="#1B1C1E" id="Ellipse_1_copy"/>
      </g>
    </g>
    <path d="M62,215.11 L812,215.11 L812,1549.11 L62,1549.11 z" fill="#000000"/>
  </g>
  <g id="White">
    <g id="Phone">
      <g id="Body">
        <path d="M8.5,221.078 C13.195,221.078 17,224.883 17,229.577 C17,229.577 17,283.57 17,283.57 C17,288.264 13.195,292.069 8.5,292.069 C3.806,292.069 0,288.264 0,283.57 C0,283.57 0,229.577 0,229.577 C0,224.883 3.806,221.078 8.5,221.078 z" fill="#D4D4D4" id="Rounded_Rectangle_2"/>
        <path d="M8.5,374.057 C13.195,374.057 17,377.862 17,382.556 C17,382.556 17,494.541 17,494.541 C17,499.234 13.195,503.039 8.5,503.039 C3.806,503.039 0,499.234 0,494.541 C0,494.541 0,382.556 0,382.556 C0,377.862 3.806,374.057 8.5,374.057 z" fill="#D4D4D4" id="Rounded_Rectangle_2_copy"/>
        <path d="M8.5,533.035 C13.195,533.035 17,536.84 17,541.534 C17,541.534 17,653.519 17,653.519 C17,658.212 13.195,662.017 8.5,662.017 C3.806,662.017 0,658.212 0,653.519 C0,653.519 0,541.534 0,541.534 C0,536.84 3.806,533.035 8.5,533.035 z" fill="#D4D4D4" id="Rounded_Rectangle_2_copy_2"/>
        <path d="M862,364.058 L862.002,364.059 L863,364.059 L863,364.159 C865.463,364.876 866.747,366.553 867,369.058 C867,369.058 867,490.041 867,490.041 C866.717,493.132 865.634,493.835 863,494.94 L863,495.041 C863,495.041 859,495.041 859,495.041 L859,364.059 L862,364.059 L862,364.058 z" fill="#D4D4D4" id="Rectangle_1"/>
        <path d="M134.009,-0 L135.73,0.109 L737.653,0.109 L737.985,0.084 L744,0.109 L744.004,0.109 L745,0.109 L745,0.163 C809.944,3.063 858.448,52.742 862,117.093 C862.024,123.212 862.178,121.11 862,123.416 L862,1636.631 C862.161,1638.86 862.017,1636.781 862,1642.882 C858.5,1705.49 805.867,1757.366 737,1759.865 C730.763,1759.922 732.999,1760.067 730.277,1759.865 L133.579,1759.865 C130.014,1760.101 132.537,1759.978 126,1759.865 C59.383,1756.866 13,1704.99 9,1642.882 C8.738,1635.482 8.685,1638.875 9,1632.702 L9,126.082 C8.716,121.102 8.802,124.098 9,117.093 C12.667,52.484 62.716,3.108 128,0.109 L134.009,-0 z" fill="#D9D9D9" id="Rectangle_1_copy_2"/>
        <path d="M733,12.107 C805.617,12.107 850,59.983 850,129.091 L850,129.091 L850,1629.384 C850,1693.992 797.617,1746.368 733,1746.368 L131,1746.368 L131,1746.206 C96.19,1744.498 62.443,1730.689 41.892,1701.525 C26.921,1680.28 21.513,1654.974 21,1629.384 L21,129.091 C21,59.983 66.883,12.107 138,12.107 L140,12.158 L140,12.107 L733,12.107 z" fill="#D1D1D1" id="Rectangle_1_copy_3"/>
        <path d="M728.139,16.106 C805.29,16.107 846.5,66.829 846,133.939 L845.999,133.965 L846,133.965 C846,133.966 846,1626.009 846,1626.009 L845.406,1626.009 C846.05,1631.853 845.81,1628.666 846,1635.579 C846,1689.886 793.231,1743.868 728.138,1743.868 L728.125,1743.868 L728.125,1743.868 L135.813,1743.868 L135.813,1743.7 C100.378,1742.773 64.953,1729.028 44.576,1698.7 C30.103,1677.159 25.456,1651.542 25,1626.036 L25,1626.009 L25,1626.009 L25,133.965 L25.001,133.965 L25,133.939 C25,64.33 68.221,16.107 142.861,16.107 L144.875,16.157 L144.875,16.107 C144.875,16.107 728.125,16.107 728.125,16.107 L728.139,16.106 z" fill="#F8F8F8" id="Rectangle_1_copy_4"/>
        <path d="M850,151.088 C850,151.088 862,151.088 862,151.088 C862,151.088 862,167.086 862,167.086 C862,167.086 850,167.086 850,167.086 C850,167.086 850,151.088 850,151.088 z" fill="#C7C7C7" id="Line2"/>
        <path d="M9,151.088 C9,151.088 21,151.088 21,151.088 C21,151.088 21,167.086 21,167.086 C21,167.086 9,167.086 9,167.086 C9,167.086 9,151.088 9,151.088 z" fill="#C7C7C7" id="Line1"/>
        <path d="M850,1579.891 C850,1579.891 862,1579.891 862,1579.891 C862,1579.891 862,1595.888 862,1595.888 C862,1595.888 850,1595.888 850,1595.888 C850,1595.888 850,1579.891 850,1579.891 z" fill="#C7C7C7" id="Line4"/>
        <path d="M9,1579.891 C9,1579.891 21,1579.891 21,1579.891 C21,1579.891 21,1595.888 21,1595.888 C21,1595.888 9,1595.888 9,1595.888 C9,1595.888 9,1579.891 9,1579.891 z" fill="#C7C7C7" id="Line3"/>
      </g>
      <g id="Round">
        <path d="M435,1587.89 C469.794,1587.89 498,1616.092 498,1650.881 C498,1685.67 469.794,1713.872 435,1713.872 C400.206,1713.872 372,1685.67 372,1650.881 C372,1616.092 400.206,1587.89 435,1587.89 z" fill="#8B8B8B" id="Ellipse_2"/>
        <path d="M435,1595.889 C465.376,1595.889 490,1620.509 490,1650.881 C490,1681.252 465.376,1705.873 435,1705.873 C404.624,1705.873 380,1681.252 380,1650.881 C380,1620.509 404.624,1595.889 435,1595.889 z" fill="#F1F1F1" id="Ellipse_2_copy"/>
      </g>
      <g id="Speker">
        <g id="Rounded_Rectangle_1">
          <path d="M391,110.094 C391,110.094 507,110.094 507,110.094 C511.418,110.094 515,113.675 515,118.093 C515,122.51 511.418,126.092 507,126.092 C507,126.092 391,126.092 391,126.092 C386.582,126.092 383,122.51 383,118.093 C383,113.675 386.582,110.094 391,110.094 z" fill="#353535"/>
          <path d="M507,107.094 C513.075,107.094 518,112.018 518,118.093 C518,124.167 513.075,129.092 507,129.092 L391,129.092 C384.925,129.092 380,124.167 380,118.093 C380,112.018 384.925,107.094 391,107.094 L507,107.094 z M507,110.094 L391,110.094 C386.582,110.094 383,113.675 383,118.093 C383,122.51 386.582,126.092 391,126.091 L507,126.091 C511.418,126.092 515,122.51 515,118.093 C515,113.675 511.418,110.094 507,110.094 z" fill="#404040" fill-opacity="0.23"/>
        </g>
      </g>
      <g id="cam">
        <path d="M325,100.095 C334.941,100.095 343,108.153 343,118.093 C343,128.032 334.941,136.09 325,136.09 C315.059,136.09 307,128.032 307,118.093 C307,108.153 315.059,100.095 325,100.095 z" fill="#353535" id="Ellipse_1"/>
        <path d="M325,107.094 C331.075,107.094 336,112.018 336,118.093 C336,124.167 331.075,129.091 325,129.091 C318.925,129.091 314,124.167 314,118.093 C314,112.018 318.925,107.094 325,107.094 z" fill="#1B1C1E" id="Ellipse_1_copy"/>
      </g>
    </g>
    <path d="M62,214.987 L812,214.987 L812,1548.987 L62,1548.987 z" fill="#000000"/>
  </g>
</svg>
